#N canvas 222 226 942 533 10;
#X obj 152 66 textfile;
#X obj 152 88 list split 1;
#X obj 179 193 f;
#X obj 205 193 + 1;
#X obj 152 43 t a b;
#X msg 179 166 -1;
#X text 346 12 <- Click to reset;
#X obj 224 235 print OBJECT_ID;
#X obj 314 35 bng 15 250 50 0 empty empty empty 17 7 0 10 -262144 -1
-1;
#X text 332 36 <- Output Each object in the file along with;
#X text 603 35 its location \, arguments \, and creation ID.;
#X obj 179 214 route -1;
#X obj 186 110 list trim;
#X obj 421 266 print OBJECT;
#X obj 415 176 t b a;
#X obj 381 154 list split 3;
#X obj 124 162 b;
#X obj 421 244 list trim;
#X obj 421 200 list;
#X obj 333 174 list split 1;
#X obj 421 222 list;
#X text 317 76 Example Printing Syntax: OBJECT_ID: #;
#X text 485 89 OBJECT: obj <type> <args> <x-coordinate> <y-coordinate>
;
#X text 479 189 Warning: having [pd] subpatches will break this. You
could fix that by waiting to increment the counter until the next "restore"
line in the file - not gonna bother with that now.;
#X text 393 131 <- If there's anything in a .pd file I missed that
doesn't;
#X text 483 145 count as a connectable object \, add it here.;
#X obj 186 132 route connect text restore canvas;
#X obj 359 269 list;
#X obj 359 290 list prepend add;
#X msg 359 332;
#X msg 304 290 set;
#X text -9 328 All the objects (after hitting the bang above many times)
->;
#X obj 359 310 list trim;
#X obj 353 245 list;
#X obj 353 223 t b a;
#X msg 152 13 read YOUR_PATCH_HERE.pd \, rewind;
#X connect 0 0 1 0;
#X connect 1 1 12 0;
#X connect 2 0 3 0;
#X connect 2 0 11 0;
#X connect 3 0 2 1;
#X connect 4 0 0 0;
#X connect 4 1 5 0;
#X connect 5 0 2 0;
#X connect 8 0 0 0;
#X connect 11 1 7 0;
#X connect 11 1 33 1;
#X connect 12 0 26 0;
#X connect 14 0 2 0;
#X connect 14 1 18 1;
#X connect 15 0 19 0;
#X connect 15 1 14 0;
#X connect 16 0 0 0;
#X connect 17 0 13 0;
#X connect 18 0 20 0;
#X connect 19 0 18 0;
#X connect 19 1 20 1;
#X connect 20 0 17 0;
#X connect 20 0 34 0;
#X connect 26 0 16 0;
#X connect 26 1 16 0;
#X connect 26 2 16 0;
#X connect 26 3 16 0;
#X connect 26 4 15 0;
#X connect 27 0 28 0;
#X connect 28 0 32 0;
#X connect 30 0 29 0;
#X connect 32 0 29 0;
#X connect 33 0 27 0;
#X connect 34 0 33 0;
#X connect 34 1 27 1;
#X connect 35 0 4 0;
