#N canvas 670 100 504 485 10;
#X obj 114 161 textfile;
#X obj 141 141 until;
#X obj 114 182 list split 1;
#X obj 148 203 list trim;
#X obj 238 288 f;
#X obj 264 288 + 1;
#X msg 238 267 -1;
#X obj 238 309 route -1;
#X obj 148 224 route obj connect;
#X obj 148 267 list split 2;
#X obj 209 336 pack s f;
#X obj 182 291 t s b;
#X obj 114 15 inlet;
#X obj 346 336 list;
#X obj 273 423 outlet;
#X obj 37 433 s oscOut;
#X msg 137 412 send \$1 \$2 \$3 \$4 \$5;
#X obj 137 433 s oscOut;
#X obj 346 357 list prepend /connection;
#X obj 209 357 list prepend /modules;
#X msg 37 412 send \$1 \$2 \$3;
#X msg 114 56 send /connection/clear;
#X obj 44 77 s oscOut;
#X msg 114 78 bang;
#X obj 114 120 t a b b b;
#X msg 114 99 read rack.pd \, rewind;
#X obj 136 36 delay 500 1 msec;
#X text 238 36 dirty hack to send the connection changes;
#X connect 0 0 2 0;
#X connect 0 1 1 1;
#X connect 1 0 0 0;
#X connect 2 1 3 0;
#X connect 3 0 8 0;
#X connect 4 0 5 0;
#X connect 4 0 7 0;
#X connect 5 0 4 1;
#X connect 6 0 4 0;
#X connect 7 1 10 1;
#X connect 8 0 9 0;
#X connect 8 1 13 0;
#X connect 9 1 11 0;
#X connect 10 0 19 0;
#X connect 11 0 10 0;
#X connect 11 1 4 0;
#X connect 12 0 21 0;
#X connect 12 0 26 0;
#X connect 13 0 18 0;
#X connect 16 0 17 0;
#X connect 18 0 14 0;
#X connect 18 0 16 0;
#X connect 19 0 14 0;
#X connect 19 0 20 0;
#X connect 20 0 15 0;
#X connect 21 0 22 0;
#X connect 21 0 23 0;
#X connect 23 0 25 0;
#X connect 24 0 0 0;
#X connect 24 1 1 0;
#X connect 24 2 6 0;
#X connect 25 0 24 0;
#X connect 26 0 21 0;
