#N canvas 649 119 504 485 10;
#X obj 114 114 textfile;
#X obj 141 94 until;
#X obj 114 135 list split 1;
#X obj 148 156 list trim;
#X msg 114 52 read rack.pd \, rewind;
#X obj 238 241 f;
#X obj 264 241 + 1;
#X msg 238 220 -1;
#X obj 238 262 route -1;
#X obj 114 73 t a b b;
#X obj 148 177 route obj connect;
#X obj 148 220 list split 2;
#X obj 209 289 pack s f;
#X obj 182 244 t s b;
#X obj 114 25 inlet;
#X obj 346 289 list;
#X obj 273 376 outlet;
#X obj 37 386 s oscOut;
#X msg 137 365 send \$1 \$2 \$3 \$4 \$5;
#X obj 137 386 s oscOut;
#X obj 346 310 list prepend /connection;
#X obj 209 310 list prepend /modules;
#X msg 37 365 send \$1 \$2 \$3;
#X connect 0 0 2 0;
#X connect 0 1 1 1;
#X connect 1 0 0 0;
#X connect 2 1 3 0;
#X connect 3 0 10 0;
#X connect 4 0 9 0;
#X connect 5 0 6 0;
#X connect 5 0 8 0;
#X connect 6 0 5 1;
#X connect 7 0 5 0;
#X connect 8 1 12 1;
#X connect 9 0 0 0;
#X connect 9 1 1 0;
#X connect 9 2 7 0;
#X connect 10 0 11 0;
#X connect 10 1 15 0;
#X connect 11 1 13 0;
#X connect 12 0 21 0;
#X connect 13 0 12 0;
#X connect 13 1 5 0;
#X connect 14 0 4 0;
#X connect 15 0 20 0;
#X connect 18 0 19 0;
#X connect 20 0 16 0;
#X connect 20 0 18 0;
#X connect 21 0 16 0;
#X connect 21 0 22 0;
#X connect 22 0 17 0;
