#N canvas 107 57 1015 650 10;
#N canvas 15 50 633 581 LED 0;
#X msg 74 339 send /led \$1;
#X obj 75 137 % 8;
#X obj 75 86 r led;
#X msg 125 134 0;
#X obj 125 84 r quitting;
#X obj 74 368 s oscOut;
#X obj 89 235 sel 0 1 2 3 4 5 6 7, f 37;
#X msg 87 266 0;
#X msg 123 266 4;
#X msg 160 266 5;
#X msg 197 265 1;
#X msg 232 265 3;
#X msg 270 265 2;
#X msg 306 267 6;
#X msg 343 267 7;
#X connect 0 0 5 0;
#X connect 1 0 6 0;
#X connect 2 0 1 0;
#X connect 3 0 6 0;
#X connect 4 0 3 0;
#X connect 6 0 7 0;
#X connect 6 1 8 0;
#X connect 6 2 9 0;
#X connect 6 3 10 0;
#X connect 6 4 11 0;
#X connect 6 5 12 0;
#X connect 6 6 13 0;
#X connect 6 7 14 0;
#X connect 7 0 0 0;
#X connect 8 0 0 0;
#X connect 9 0 0 0;
#X connect 10 0 0 0;
#X connect 11 0 0 0;
#X connect 12 0 0 0;
#X connect 13 0 0 0;
#X connect 14 0 0 0;
#X restore 69 365 pd LED;
#N canvas 16 50 1215 407 OLED 0;
#X obj 110 173 list append;
#X obj 110 198 list trim;
#X obj 137 110 t b l;
#X msg 35 138 send /oled/line/1;
#X obj 110 223 s oscOut;
#X obj 137 78 list;
#X obj 135 44 r screenLine1;
#X obj 297 169 list append;
#X obj 297 194 list trim;
#X obj 324 106 t b l;
#X obj 297 219 s oscOut;
#X obj 324 74 list;
#X obj 505 198 list trim;
#X obj 532 110 t b l;
#X obj 505 223 s oscOut;
#X obj 532 78 list;
#X obj 505 173 list append;
#X obj 697 170 list append;
#X obj 697 195 list trim;
#X obj 724 107 t b l;
#X obj 697 220 s oscOut;
#X obj 724 75 list;
#X obj 914 170 list append;
#X obj 914 195 list trim;
#X obj 941 107 t b l;
#X obj 914 220 s oscOut;
#X obj 941 75 list;
#X obj 322 40 r screenLine2;
#X obj 530 44 r screenLine3;
#X obj 722 41 r screenLine4;
#X obj 939 41 r screenLine5;
#X msg 222 134 send /oled/line/2;
#X msg 430 138 send /oled/line/3;
#X msg 622 136 send /oled/line/4;
#X msg 839 135 send /oled/line/5;
#X connect 0 0 1 0;
#X connect 1 0 4 0;
#X connect 2 0 3 0;
#X connect 2 1 0 1;
#X connect 3 0 0 0;
#X connect 5 0 2 0;
#X connect 6 0 5 0;
#X connect 7 0 8 0;
#X connect 8 0 10 0;
#X connect 9 0 31 0;
#X connect 9 1 7 1;
#X connect 11 0 9 0;
#X connect 12 0 14 0;
#X connect 13 0 32 0;
#X connect 13 1 16 1;
#X connect 15 0 13 0;
#X connect 16 0 12 0;
#X connect 17 0 18 0;
#X connect 18 0 20 0;
#X connect 19 0 33 0;
#X connect 19 1 17 1;
#X connect 21 0 19 0;
#X connect 22 0 23 0;
#X connect 23 0 25 0;
#X connect 24 0 34 0;
#X connect 24 1 22 1;
#X connect 26 0 24 0;
#X connect 27 0 11 0;
#X connect 28 0 15 0;
#X connect 29 0 21 0;
#X connect 30 0 26 0;
#X connect 31 0 7 0;
#X connect 32 0 16 0;
#X connect 33 0 17 0;
#X connect 34 0 22 0;
#X restore 71 397 pd OLED;
#N canvas 8 50 450 300 quit 0;
#X obj 96 95 sel 1;
#X obj 96 149 delay 100;
#X msg 96 171 \; pd quit;
#X obj 96 117 t b b;
#X obj 170 150 s quitting;
#X obj 96 26 r oscIn;
#X obj 96 60 mrpeach/routeOSC /quitpd;
#X connect 0 0 3 0;
#X connect 1 0 2 0;
#X connect 3 0 1 0;
#X connect 3 1 4 0;
#X connect 5 0 6 0;
#X connect 6 0 0 0;
#X restore 69 471 pd quit;
#N canvas 13 50 516 343 keys 0;
#X obj 206 114 unpack;
#X floatatom 206 144 5 0 0 0 - - -, f 5;
#X floatatom 253 146 5 0 0 0 - - -, f 5;
#X obj 206 212 pack;
#X obj 206 247 s notes;
#X obj 253 173 / 1;
#X obj 206 171 + 59;
#X obj 119 112 sel 100;
#X msg 119 145 1;
#X msg 165 145 0;
#X obj 119 178 s aux;
#X obj 119 83 route 0;
#X obj 119 26 r oscIn;
#X obj 284 249 s notesRaw;
#X obj 39 181 s auxRaw;
#X obj 119 56 mrpeach/routeOSC /key;
#X connect 0 0 1 0;
#X connect 0 1 2 0;
#X connect 1 0 6 0;
#X connect 2 0 5 0;
#X connect 3 0 4 0;
#X connect 3 0 13 0;
#X connect 5 0 3 1;
#X connect 6 0 3 0;
#X connect 7 0 8 0;
#X connect 7 1 9 0;
#X connect 8 0 10 0;
#X connect 8 0 14 0;
#X connect 9 0 10 0;
#X connect 9 0 14 0;
#X connect 11 0 7 0;
#X connect 11 1 0 0;
#X connect 12 0 15 0;
#X connect 15 0 11 0;
#X restore 69 498 pd keys;
#N canvas 12 51 821 300 footSwitch 0;
#X obj 194 218 s fs;
#X obj 194 76 r oscIn;
#X obj 254 219 s fsRaw;
#X obj 194 171 == 0;
#X text 253 167 flip this cause most foot switches we tried are normally
closed, f 66;
#X obj 327 118 r footSwitchPolarity;
#X obj 194 109 mrpeach/routeOSC /fs;
#X connect 1 0 6 0;
#X connect 3 0 2 0;
#X connect 3 0 0 0;
#X connect 5 0 3 1;
#X connect 6 0 3 0;
#X restore 69 525 pd footSwitch;
#N canvas 28 110 1252 622 analog 0;
#X obj 868 278 s vol;
#X obj 148 175 unpack 0 0 0 0 0 0, f 129;
#X obj 145 375 s knob1;
#X obj 148 113 r oscIn;
#X obj 63 231 s knob1Raw;
#X obj 1048 366 s exp;
#X obj 1122 211 r expOverride;
#X obj 1122 305 tgl 15 0 empty empty empty 17 7 0 10 -262144 -1 -1
0 1;
#X obj 984 270 s expRaw;
#X floatatom 1048 339 5 0 0 0 - - -, f 5;
#X obj 145 323 change -1;
#X obj 868 210 change -1;
#X obj 1048 209 change -1;
#X obj 1048 275 override 20;
#X obj 257 234 s knob2Raw;
#X obj 338 427 s knob2;
#X obj 338 373 change -1;
#X obj 538 367 change -1;
#X obj 425 232 s knob3Raw;
#X obj 538 421 s knob3;
#X obj 707 381 change -1;
#X obj 599 230 s knob4Raw;
#X obj 707 435 s knob4;
#X obj 145 349 / 1023;
#X obj 338 401 / 1023;
#X obj 538 395 / 1023;
#X obj 707 409 / 1023;
#X obj 868 245 / 1023;
#X obj 1048 306 / 1023;
#X obj 148 297 override2 20 1;
#X text 298 34 knobs pass thru override2 if their value is coming from
somewhere else (knobs.txt preset file or MIDI CC);
#X obj 338 344 override2 20 2;
#X obj 538 338 override2 20 3;
#X obj 707 352 override2 20 4;
#X obj 148 147 mrpeach/routeOSC /knobs;
#X connect 1 0 4 0;
#X connect 1 0 29 0;
#X connect 1 1 14 0;
#X connect 1 1 31 0;
#X connect 1 2 18 0;
#X connect 1 2 32 0;
#X connect 1 3 21 0;
#X connect 1 3 33 0;
#X connect 1 4 11 0;
#X connect 1 5 12 0;
#X connect 3 0 34 0;
#X connect 6 0 13 1;
#X connect 9 0 5 0;
#X connect 10 0 23 0;
#X connect 11 0 27 0;
#X connect 12 0 8 0;
#X connect 12 0 13 0;
#X connect 13 0 28 0;
#X connect 13 1 7 0;
#X connect 16 0 24 0;
#X connect 17 0 25 0;
#X connect 20 0 26 0;
#X connect 23 0 2 0;
#X connect 24 0 15 0;
#X connect 25 0 19 0;
#X connect 26 0 22 0;
#X connect 27 0 0 0;
#X connect 28 0 9 0;
#X connect 29 0 10 0;
#X connect 31 0 16 0;
#X connect 32 0 17 0;
#X connect 33 0 20 0;
#X connect 34 0 1 0;
#X restore 70 558 pd analog;
#X text 43 335 stuff going out (from patch)...;
#X text 40 442 stuff coming in (to patch)...;
#X msg 298 149 port 4000;
#X obj 24 221 tgl 15 0 empty empty empty 17 7 0 10 -262144 -1 -1 1
1;
#X msg 136 147 connect localhost 4001;
#X obj 24 121 r oscOut;
#X obj 230 64 t b b;
#X obj 230 36 loadbang;
#X obj 298 225 s oscIn;
#X obj 24 185 mrpeach/udpsend;
#X obj 24 149 mrpeach/packOSC;
#X obj 298 177 mrpeach/udpreceive;
#X obj 298 201 mrpeach/unpackOSC;
#N canvas 398 23 815 372 knobs 0;
#X obj 476 40 r oscIn;
#X obj 476 63 mrpeach/routeOSC /knobs;
#X msg 476 86 0;
#X obj 476 109 t \$1 \$1;
#X obj 514 213 tgl 15 0 empty empty empty 17 7 0 10 -262144 -1 -1 0
1;
#X msg 476 152 1;
#X obj 476 130 bang;
#X obj 106 41 r knob1;
#X obj 163 41 r knob2;
#X obj 220 41 r knob3;
#X obj 277 41 r knob4;
#X obj 334 41 r vol;
#X obj 390 41 r exp;
#X obj 46 97 bang;
#X obj 171 141 pack 0 0 0 0 0 0;
#X obj 106 97 * 1023;
#X obj 163 97 * 1023;
#X obj 334 97 * 1023;
#X obj 277 97 * 1023;
#X obj 390 97 * 1023;
#X obj 220 97 * 1023;
#X msg 171 282 /knobs \$1 \$2 \$3 \$4 \$5 \$6;
#X obj 171 313 s oscOut;
#X obj 171 261 spigot 1;
#X obj 476 174 delay 2;
#X connect 0 0 1 0;
#X connect 1 0 2 0;
#X connect 2 0 3 0;
#X connect 3 0 6 0;
#X connect 3 1 4 0;
#X connect 4 0 23 1;
#X connect 5 0 24 0;
#X connect 6 0 5 0;
#X connect 7 0 15 0;
#X connect 8 0 13 0;
#X connect 8 0 16 0;
#X connect 9 0 13 0;
#X connect 9 0 20 0;
#X connect 10 0 13 0;
#X connect 10 0 18 0;
#X connect 11 0 13 0;
#X connect 11 0 17 0;
#X connect 12 0 13 0;
#X connect 12 0 19 0;
#X connect 13 0 14 0;
#X connect 14 0 23 0;
#X connect 15 0 14 0;
#X connect 16 0 14 1;
#X connect 17 0 14 4;
#X connect 18 0 14 3;
#X connect 19 0 14 5;
#X connect 20 0 14 2;
#X connect 21 0 22 0;
#X connect 23 0 21 0;
#X connect 24 0 4 0;
#X restore 149 362 pd knobs;
#X obj 577 74 r oscIn;
#X obj 808 146 list;
#X obj 809 166 unpack s a;
#X obj 794 249 s;
#X obj 772 219 list;
#X obj 772 196 bang;
#X text 123 8 Receives and sends signals to the rack GUI;
#X text 49 222 connected to rack GUI;
#X text 851 132 Route incomming messages to proper module, f 24;
#X msg 789 308 \; pd-rack.pd obj 20 20 int 10 \;;
#X msg 444 147 \; pd-rack.pd connect \$1 \$2 \$3 \$4 \;;
#X msg 444 201 bang;
#X obj 444 222 s save;
#X obj 444 180 delay 500;
#X text 519 128 Handle connections;
#X msg 664 201 bang;
#X obj 664 222 s list-rack;
#X text 613 178 Respond with rack content;
#X obj 61 260 s list-rack;
#X obj 577 95 mrpeach/routeOSC /connection /disconnect /list-rack;
#X msg 444 311 bang;
#X obj 444 332 s save;
#X obj 444 290 delay 500;
#X text 519 238 Handle disconnection;
#X msg 444 257 \; pd-rack.pd disconnect \$1 \$2 \$3 \$4 \;;
#X connect 8 0 17 0;
#X connect 10 0 15 0;
#X connect 11 0 16 0;
#X connect 12 0 10 0;
#X connect 12 1 8 0;
#X connect 13 0 12 0;
#X connect 15 0 9 0;
#X connect 15 0 38 0;
#X connect 16 0 15 0;
#X connect 17 0 18 0;
#X connect 18 0 14 0;
#X connect 20 0 39 0;
#X connect 21 0 22 0;
#X connect 22 0 23 1;
#X connect 22 0 25 0;
#X connect 22 1 24 1;
#X connect 24 0 23 0;
#X connect 25 0 24 0;
#X connect 31 0 32 0;
#X connect 33 0 31 0;
#X connect 35 0 36 0;
#X connect 39 0 30 0;
#X connect 39 0 33 0;
#X connect 39 1 44 0;
#X connect 39 1 42 0;
#X connect 39 2 35 0;
#X connect 39 3 21 0;
#X connect 40 0 41 0;
#X connect 42 0 40 0;
