#N canvas 141 101 971 522 10;
#X obj 470 452 dac~ 1 2;
#X obj 470 290 inlet~;
#X obj 515 290 inlet~;
#X obj 232 292 adc~ 1 2;
#X obj 470 406 *~;
#X obj 515 406 *~;
#X obj 233 452 outlet~;
#X obj 283 452 outlet~;
#X obj 233 404 *~;
#X obj 283 404 *~;
#X obj 122 123 vsl 15 128 0 1.5 0 1 /audio~/out/1 /audio~/out/1 outL
0 -9 0 10 -262144 -1 -1 8467 1;
#X obj 152 123 vsl 15 128 0 1.5 0 0 /audio~/out/2 /audio~/out/2 outR
0 -9 0 10 -262144 -1 -1 8467 1;
#X obj 62 122 vsl 15 128 0 1.5 0 0 /audio~/in/1 /audio~/in/1 inL 0
-9 0 10 -262144 -1 -1 8467 1;
#X obj 92 123 vsl 15 128 0 1.5 0 0 /audio~/in/2 /audio~/in/2 inR 0
-9 0 10 -262144 -1 -1 8467 1;
#X obj 560 290 inlet~;
#X obj 623 290 inlet~;
#X obj 560 406 *~;
#X obj 623 406 *~;
#X obj 560 330 nencoder~;
#X obj 623 330 nencoder~;
#N canvas 0 22 450 278 (subpatch) 0;
#X array scope-out1 100 float 3;
#A 0 0 0 0 0 0 0 0 0 0 0 0 0 0 0 0 0 0 0 0 0 0 0 0 0 0 0 0 0 0 0 0
0 0 0 0 0 0 0 0 0 0 0 0 0 0 0 0 0 0 0 0 0 0 0 0 0 0 0 0 0 0 0 0 0 0
0 0 0 0 0 0 0 0 0 0 0 0 0 0 0 0 0 0 0 0 0 0 0 0 0 0 0 0 0 0 0 0 0 0
0;
#X coords 0 1 100 -1 200 140 1;
#X restore 741 159 graph;
#X obj 744 355 tabwrite~ scope-out1;
#X obj 744 325 metro 100;
#X obj 744 306 tgl 15 0 empty empty empty 17 7 0 10 -262144 -1 -1 1
1;
#X obj 574 53 vsl 15 128 0 1 0 1 /audio~/carrier/1 /audio~/carrier/1
car1 0 -9 0 10 -262144 -1 -1 12700 1;
#X msg 574 199 carrier \$1;
#X msg 18 29 1;
#X obj 603 53 vsl 15 128 0 1 0 1 /audio~/carrier/2 /audio~/carrier/2
car2 0 -9 0 10 -262144 -1 -1 12700 1;
#X msg 654 199 carrier \$1;
#X obj 340 452 outlet~;
#X obj 403 452 outlet~;
#X obj 340 337 ndecoder~;
#X obj 403 337 ndecoder~;
#X obj 233 404 *~;
#X obj 283 404 *~;
#X obj 340 406 *~;
#X obj 403 406 *~;
#X obj 203 6 vsl 15 128 0 1 0 1 empty empty empty 0 -9 0 10 -262144
-1 -1 2700 1;
#X msg 203 142 attack \$1;
#X obj 231 6 vsl 15 128 0 1 0 1 empty empty empty 0 -9 0 10 -262144
-1 -1 10400 1;
#X msg 231 162 release \$1;
#X obj 258 6 vsl 15 128 -1 1 0 1 empty empty empty 0 -9 0 10 -262144
-1 -1 12700 1;
#X msg 258 182 attenuverter \$1;
#X obj 285 6 vsl 15 128 -2 2 0 1 empty empty empty 0 -9 0 10 -262144
-1 -1 3200 1;
#X msg 285 202 offset \$1;
#X obj 312 6 vsl 15 128 1 3 0 1 empty empty empty 0 -9 0 10 -262144
-1 -1 6400 1;
#X msg 312 222 scale \$1;
#X connect 1 0 4 0;
#X connect 2 0 5 0;
#X connect 3 0 8 0;
#X connect 3 0 31 0;
#X connect 3 1 9 0;
#X connect 3 1 32 0;
#X connect 4 0 0 0;
#X connect 5 0 0 1;
#X connect 8 0 6 0;
#X connect 9 0 7 0;
#X connect 10 0 4 1;
#X connect 10 0 16 1;
#X connect 11 0 5 1;
#X connect 11 0 17 1;
#X connect 12 0 8 1;
#X connect 12 0 35 1;
#X connect 13 0 9 1;
#X connect 13 0 36 1;
#X connect 14 0 18 0;
#X connect 15 0 19 0;
#X connect 16 0 0 0;
#X connect 17 0 0 1;
#X connect 18 0 16 0;
#X connect 19 0 17 0;
#X connect 22 0 21 0;
#X connect 23 0 22 0;
#X connect 24 0 25 0;
#X connect 25 0 18 0;
#X connect 26 0 10 0;
#X connect 26 0 11 0;
#X connect 26 0 12 0;
#X connect 26 0 13 0;
#X connect 27 0 28 0;
#X connect 28 0 19 0;
#X connect 31 0 35 0;
#X connect 32 0 36 0;
#X connect 35 0 29 0;
#X connect 36 0 30 0;
#X connect 37 0 38 0;
#X connect 38 0 31 0;
#X connect 39 0 40 0;
#X connect 40 0 31 0;
#X connect 41 0 42 0;
#X connect 42 0 31 0;
#X connect 43 0 44 0;
#X connect 44 0 31 0;
#X connect 45 0 46 0;
#X connect 46 0 31 0;
#X coords 0 -1 1 1 130 180 1 50 80;
