#N canvas 141 101 593 439 10;
#X obj 350 382 dac~ 1 2;
#X obj 350 220 inlet~;
#X obj 395 220 inlet~;
#X obj 232 222 adc~ 1 2;
#X obj 350 336 *~;
#X obj 395 336 *~;
#X obj 233 382 outlet~;
#X obj 287 382 outlet~;
#X obj 233 334 *~;
#X obj 287 334 *~;
#X obj 122 123 vsl 15 128 0.015 1.5 1 1 /audio~/out/1 /audio~/out/1
outL 0 -9 0 10 -262144 -1 -1 11582 1;
#X obj 152 123 vsl 15 128 0.015 1.5 1 0 /audio~/out/2 /audio~/out/2
outR 0 -9 0 10 -262144 -1 -1 11582 1;
#X obj 62 122 vsl 15 128 0.015 1.5 1 0 /audio~/in/1 /audio~/in/1 inL
0 -9 0 10 -262144 -1 -1 11582 1;
#X obj 92 123 vsl 15 128 0.015 1.5 1 0 /audio~/in/2 /audio~/in/2 inR
0 -9 0 10 -262144 -1 -1 11582 1;
#X connect 1 0 4 0;
#X connect 2 0 5 0;
#X connect 3 0 8 0;
#X connect 3 1 9 0;
#X connect 4 0 0 0;
#X connect 5 0 0 1;
#X connect 8 0 6 0;
#X connect 9 0 7 0;
#X connect 10 0 4 1;
#X connect 11 0 5 1;
#X connect 12 0 8 1;
#X connect 13 0 9 1;
#X coords 0 -1 1 1 130 180 1 50 80;
