#N canvas 141 101 971 522 10;
#X obj 232 292 adc~ 1 2;
#X obj 233 452 outlet~;
#X obj 283 452 outlet~;
#X obj 233 404 *~;
#X obj 283 404 *~;
#X obj 78 108 vsl 15 128 0 1.5 0 0 /audio~/in/1 /audio~/in/1 inL 0
-9 0 10 -262144 -1 -1 0 1;
#X obj 108 109 vsl 15 128 0 1.5 0 0 /audio~/in/2 /audio~/in/2 inR 0
-9 0 10 -262144 -1 -1 0 1;
#N canvas 0 22 450 278 (subpatch) 0;
#X array \$0-scope 100 float 3;
#A 0 0 0 0 0 0 0 0 0 0 0 0 0 0 0 0 0 0 0 0 0 0 0 0 0 0 0 0 0 0 0 0
0 0 0 0 0 0 0 0 0 0 0 0 0 0 0 0 0 0 0 0 0 0 0 0 0 0 0 0 0 0 0 0 0 0
0 0 0 0 0 0 0 0 0 0 0 0 0 0 0 0 0 0 0 0 0 0 0 0 0 0 0 0 0 0 0 0 0 0
0;
#X coords 0 1 100 -1 200 140 1 0 0;
#X restore 741 159 graph;
#X obj 744 325 metro 100;
#X obj 744 306 tgl 15 0 empty empty empty 17 7 0 10 -262144 -1 -1 0
1;
#X msg 18 29 1;
#X obj 340 452 outlet~;
#X obj 403 452 outlet~;
#X obj 340 337 ndecoder~;
#X obj 403 337 ndecoder~;
#X obj 233 404 *~;
#X obj 283 404 *~;
#X obj 340 406 *~;
#X obj 403 406 *~;
#X obj 203 6 vsl 15 128 0 1 0 1 empty empty empty 0 -9 0 10 -262144
-1 -1 2700 1;
#X msg 203 142 attack \$1;
#X obj 231 6 vsl 15 128 0 1 0 1 empty empty empty 0 -9 0 10 -262144
-1 -1 10400 1;
#X msg 231 162 release \$1;
#X obj 258 6 vsl 15 128 -1 1 0 1 empty empty empty 0 -9 0 10 -262144
-1 -1 12700 1;
#X msg 258 182 attenuverter \$1;
#X obj 285 6 vsl 15 128 -2 2 0 1 empty empty empty 0 -9 0 10 -262144
-1 -1 3200 1;
#X msg 285 202 offset \$1;
#X obj 312 6 vsl 15 128 1 3 0 1 empty empty empty 0 -9 0 10 -262144
-1 -1 6400 1;
#X msg 312 222 scale \$1;
#X obj 744 355 tabwrite~ \$0-scope;
#X obj 383 6 vsl 15 128 0 1 0 1 empty empty empty 0 -9 0 10 -262144
-1 -1 2700 1;
#X msg 383 142 attack \$1;
#X obj 411 6 vsl 15 128 0 1 0 1 empty empty empty 0 -9 0 10 -262144
-1 -1 10400 1;
#X msg 411 162 release \$1;
#X obj 438 6 vsl 15 128 -1 1 0 1 empty empty empty 0 -9 0 10 -262144
-1 -1 12700 1;
#X msg 438 182 attenuverter \$1;
#X obj 465 6 vsl 15 128 -2 2 0 1 empty empty empty 0 -9 0 10 -262144
-1 -1 3200 1;
#X msg 465 202 offset \$1;
#X obj 492 6 vsl 15 128 1 3 0 1 empty empty empty 0 -9 0 10 -262144
-1 -1 6400 1;
#X msg 492 222 scale \$1;
#X text 51 246 L;
#X text 76 246 R;
#X text 98 246 CV1;
#X text 128 246 CV2;
#X obj 30 361 osc-send /audio~/in/1;
#X obj 30 391 osc-send /audio~/in/2;
#X connect 0 0 3 0;
#X connect 0 0 13 0;
#X connect 0 1 4 0;
#X connect 0 1 14 0;
#X connect 3 0 1 0;
#X connect 4 0 2 0;
#X connect 5 0 3 1;
#X connect 5 0 17 1;
#X connect 6 0 4 1;
#X connect 6 0 18 1;
#X connect 8 0 29 0;
#X connect 9 0 8 0;
#X connect 10 0 5 0;
#X connect 10 0 6 0;
#X connect 13 0 17 0;
#X connect 14 0 18 0;
#X connect 17 0 11 0;
#X connect 18 0 12 0;
#X connect 19 0 20 0;
#X connect 20 0 13 0;
#X connect 21 0 22 0;
#X connect 22 0 13 0;
#X connect 23 0 24 0;
#X connect 24 0 13 0;
#X connect 25 0 26 0;
#X connect 26 0 13 0;
#X connect 27 0 28 0;
#X connect 28 0 13 0;
#X connect 30 0 31 0;
#X connect 31 0 14 0;
#X connect 32 0 33 0;
#X connect 33 0 14 0;
#X connect 34 0 35 0;
#X connect 35 0 14 0;
#X connect 36 0 37 0;
#X connect 37 0 14 0;
#X connect 38 0 39 0;
#X connect 39 0 14 0;
#X coords 0 -1 1 1 100 180 2 50 80;
