#N canvas 283 224 695 327 10;
#X obj 350 43 notein;
#X obj 350 90 stripnote;
#X obj 509 167 / 127;
#X obj 459 92 > 0;
#X text 50 85 note;
#X text 95 85 cv;
#X text 135 85 gate;
#X text 228 85 vel;
#X obj 350 124 - 60;
#X obj 350 153 / 12;
#X msg 469 141 0;
#X obj 469 120 delay 1 10 msec;
#X obj 295 212 outlet;
#X obj 347 212 outlet;
#X obj 402 212 outlet;
#X obj 457 212 outlet;
#X text 179 85 trig;
#X obj 459 167 int;
#X obj 509 212 outlet;
#X connect 0 0 1 0;
#X connect 0 1 1 1;
#X connect 0 1 3 0;
#X connect 1 0 8 0;
#X connect 1 0 12 0;
#X connect 1 1 2 0;
#X connect 2 0 18 0;
#X connect 3 0 14 0;
#X connect 3 0 11 0;
#X connect 3 0 17 0;
#X connect 8 0 9 0;
#X connect 9 0 13 0;
#X connect 10 0 17 0;
#X connect 11 0 10 0;
#X connect 17 0 15 0;
#X coords 0 -1 1 1 200 40 1 50 60;
